<?xml version="1.0" encoding="utf-8"?>
<!-- Generator: Adobe Illustrator 25.4.1, SVG Export Plug-In . SVG Version: 6.00 Build 0)  -->
<svg version="1.1" id="Layer_1" xmlns="http://www.w3.org/2000/svg" xmlns:xlink="http://www.w3.org/1999/xlink" x="0px" y="0px"
	 viewBox="0 0 1200 800" style="enable-background:new 0 0 1200 800;" xml:space="preserve">
<style type="text/css">
	.st0{fill:#FF0000;}
	.st1{fill:#FFFFFF;}
</style>
<path class="st0" d="M1144,124.9c-13.1-49.2-51.5-87.9-100.4-101C955.1,0,600,0,600,0S244.9,0,156.4,23.9C107.5,37,69,75.8,56,124.9
	C32.3,214,32.3,400,32.3,400s0,185.9,23.7,275.1c13,49.2,51.5,87.9,100.4,101C244.9,800,600,800,600,800s355.1,0,443.6-23.9
	c48.9-13.2,87.3-51.9,100.4-101c23.7-89.1,23.7-275.1,23.7-275.1S1167.7,214.1,1144,124.9"/>
<path class="st1" d="M483.9,568.8L780.6,400L483.9,231.2V568.8z"/>
</svg>
